<svg width="44" height="50" viewBox="0 0 44 50" fill="none" xmlns="http://www.w3.org/2000/svg">
<path d="M15.7305 42.2539H29.1985V43.0007C29.1985 46.7194 26.1831 49.7347 22.4645 49.7347C18.7458 49.7347 15.7305 46.7194 15.7305 43.0007V42.2539Z" fill="url(#paint0_linear_1202_108)"/>
<path d="M43.0702 35.1104L39.3815 31.4227C38.4753 30.5166 37.9662 29.2878 37.9661 28.0064V21.3284C37.9661 13.8998 32.632 7.71746 25.585 6.40061V3.38722C25.585 1.66363 24.187 0.265625 22.4634 0.265625C20.7398 0.265625 19.3418 1.66363 19.3418 3.38722V6.40061C12.2957 7.71746 6.96168 13.8998 6.96168 21.3284V28.0064C6.96168 29.2875 6.45252 30.5164 5.54725 31.4227L1.85852 35.1114C1.57519 35.3947 1.35044 35.731 1.19711 36.1012C1.04377 36.4714 0.964844 36.8681 0.964844 37.2688C0.964844 38.9537 2.33097 40.3198 4.01591 40.3198H40.9138C42.5987 40.3198 43.9648 38.9537 43.9648 37.2688C43.9648 36.4591 43.6431 35.6833 43.0712 35.1114L43.0702 35.1104Z" fill="url(#paint1_linear_1202_108)"/>
<defs>
<linearGradient id="paint0_linear_1202_108" x1="-5.00531" y1="34.3826" x2="12.4061" y2="59.9752" gradientUnits="userSpaceOnUse">
<stop stop-color="#2699DA"/>
<stop offset="1" stop-color="#6EDCD4"/>
</linearGradient>
<linearGradient id="paint1_linear_1202_108" x1="22.4648" y1="0.265625" x2="38.0925" y2="36.1851" gradientUnits="userSpaceOnUse">
<stop stop-color="#2699DA"/>
<stop offset="1" stop-color="#6EDCD4"/>
</linearGradient>
</defs>
</svg>
