<svg width="44" height="44" viewBox="0 0 44 44" fill="none" xmlns="http://www.w3.org/2000/svg">
<g filter="url(#filter0_d_1224_126)">
<rect x="4" y="2" width="36" height="36" rx="18" fill="#858585"/>
</g>
<path d="M22 27H31" stroke="white" stroke-width="2" stroke-linecap="round" stroke-linejoin="round"/>
<path d="M26.5 10.5002C26.8978 10.1024 27.4374 9.87891 28 9.87891C28.2786 9.87891 28.5544 9.93378 28.8118 10.0404C29.0692 10.147 29.303 10.3032 29.5 10.5002C29.697 10.6972 29.8532 10.9311 29.9598 11.1884C30.0665 11.4458 30.1213 11.7217 30.1213 12.0002C30.1213 12.2788 30.0665 12.5547 29.9598 12.812C29.8532 13.0694 29.697 13.3032 29.5 13.5002L17 26.0002L13 27.0002L14 23.0002L26.5 10.5002Z" stroke="white" stroke-width="2" stroke-linecap="round" stroke-linejoin="round"/>
<defs>
<filter id="filter0_d_1224_126" x="0" y="0" width="44" height="44" filterUnits="userSpaceOnUse" color-interpolation-filters="sRGB">
<feFlood flood-opacity="0" result="BackgroundImageFix"/>
<feColorMatrix in="SourceAlpha" type="matrix" values="0 0 0 0 0 0 0 0 0 0 0 0 0 0 0 0 0 0 127 0" result="hardAlpha"/>
<feOffset dy="2"/>
<feGaussianBlur stdDeviation="2"/>
<feComposite in2="hardAlpha" operator="out"/>
<feColorMatrix type="matrix" values="0 0 0 0 0 0 0 0 0 0 0 0 0 0 0 0 0 0 0.25 0"/>
<feBlend mode="normal" in2="BackgroundImageFix" result="effect1_dropShadow_1224_126"/>
<feBlend mode="normal" in="SourceGraphic" in2="effect1_dropShadow_1224_126" result="shape"/>
</filter>
</defs>
</svg>
