<svg width="25" height="25" viewBox="0 0 25 25" fill="none" xmlns="http://www.w3.org/2000/svg">
<path d="M23.9232 2.26308e-06H1.07711C0.879418 -0.000398657 0.68545 0.0524771 0.516603 0.152797C0.347757 0.253118 0.210592 0.396985 0.120238 0.56853C0.028664 0.742453 -0.0118997 0.937669 0.00301989 1.13265C0.0179395 1.32763 0.0877628 1.51481 0.204791 1.67354L8.57472 13.1764C8.57751 13.1804 8.58057 13.1841 8.58337 13.1881C8.88752 13.5887 9.05208 14.0738 9.05289 14.5723V23.9505C9.05202 24.088 9.079 24.2243 9.13227 24.3515C9.18555 24.4788 9.26407 24.5946 9.36333 24.6921C9.46269 24.7896 9.58081 24.867 9.71091 24.9198C9.84101 24.9727 9.98052 24.9999 10.1214 25C10.2661 24.9998 10.4093 24.9717 10.5429 24.9175L15.2462 23.1681C15.6674 23.0424 15.9472 22.6545 15.9472 22.1876V14.5723C15.948 14.0739 16.1124 13.5888 16.4164 13.1881C16.4192 13.1841 16.4222 13.1804 16.425 13.1764L24.7952 1.67329C24.9122 1.51466 24.9821 1.32758 24.997 1.13269C25.0119 0.937797 24.9713 0.742672 24.8798 0.568847C24.7895 0.397245 24.6525 0.253305 24.4837 0.152922C24.3149 0.0525393 24.1209 -0.000381832 23.9232 2.26308e-06Z" fill="#50799E"/>
</svg>
