<svg width="57" height="57" viewBox="0 0 57 57" fill="none" xmlns="http://www.w3.org/2000/svg">
<path d="M30.6767 19.9497C30.6767 24.0751 27.3332 27.4187 23.2077 27.4187C19.0823 27.4187 15.7387 24.0751 15.7387 19.9497C15.7387 15.8243 19.0823 12.4807 23.2077 12.4807C27.3324 12.4807 30.6767 15.8251 30.6767 19.9497ZM54.9744 54.9744C54.0026 55.947 52.7278 56.4332 51.454 56.4332C50.18 56.4332 48.9054 55.947 47.9335 54.9744C47.9335 54.9744 35.2511 42.2787 35.1508 42.1542C31.602 44.419 27.3905 45.7368 22.8683 45.7368C10.2384 45.7369 0 35.4984 0 22.8684C0 10.2384 10.2391 0 22.8684 0C35.4978 0 45.7369 10.2384 45.7369 22.8683C45.7369 27.3904 44.4189 31.6021 42.1543 35.1508C42.2788 35.2501 54.9745 47.9335 54.9745 47.9335C56.9195 49.8773 56.9195 53.0299 54.9744 54.9744ZM40.9725 22.8683C40.9725 12.8699 32.8669 4.7643 22.8684 4.7643C12.87 4.7643 4.76442 12.8699 4.76442 22.8683C4.76442 28.6385 7.46729 33.7748 11.6724 37.0902C12.2193 33.037 15.6842 29.9092 19.8874 29.9092H26.5265C30.5574 29.9092 33.9143 32.7839 34.666 36.5938C38.5252 33.2735 40.9725 28.3582 40.9725 22.8683Z" fill="#50799E"/>
<circle cx="23.6407" cy="19.0645" r="8.38872" fill="#1AA5C0"/>
</svg>
