<svg width="32" height="32" viewBox="0 0 32 32" fill="none" xmlns="http://www.w3.org/2000/svg">
<path d="M21.6547 3.70964C16.7074 -1.23749 8.65765 -1.23739 3.71042 3.70964C-1.23681 8.65686 -1.23681 16.7066 3.71042 21.6537C7.90747 25.8507 14.1496 26.4864 19.024 23.5623C19.024 23.5623 19.3763 23.3523 19.6598 23.636C21.278 25.2543 26.1334 30.1095 26.1334 30.1095C27.4218 31.398 29.2234 31.7048 30.3663 30.5621L30.5628 30.3654C31.7057 29.2228 31.399 27.421 30.1105 26.1326C30.1105 26.1326 25.2654 21.2876 23.6505 19.6726C23.3533 19.3753 23.5633 19.0231 23.5633 19.0231C26.4873 14.1488 25.8517 7.90669 21.6547 3.70964ZM19.3121 19.3112C15.6566 22.9667 9.70872 22.9666 6.05323 19.3111C2.39783 15.6556 2.39773 9.70774 6.05323 6.05235C9.70862 2.39685 15.6566 2.39685 19.3121 6.05235C22.9673 9.70784 22.9673 15.6556 19.3121 19.3112Z" fill="#50799E"/>
<path d="M11.9297 18.5031C11.9297 18.6733 11.8962 18.8462 11.8258 19.013C11.544 19.6789 10.7756 19.9905 10.1095 19.7086C5.92302 17.9371 3.95837 13.09 5.72991 8.90363C6.01176 8.23767 6.78018 7.9261 7.44624 8.20795C8.1123 8.48991 8.42368 9.25812 8.14192 9.92439C6.93329 12.7806 8.27378 16.088 11.13 17.2965C11.6296 17.508 11.9297 17.9929 11.9297 18.5031Z" fill="#1AA5C0"/>
</svg>
