<svg width="101" height="101" viewBox="0 0 101 101" fill="none" xmlns="http://www.w3.org/2000/svg">
<circle cx="50.5" cy="50.5" r="50.5" fill="#DBEFF1"/>
<mask id="mask0_1224_108" style="mask-type:alpha" maskUnits="userSpaceOnUse" x="6" y="6" width="90" height="89">
<circle cx="51" cy="50.5" r="44.5" fill="#D9D9D9"/>
</mask>
<g mask="url(#mask0_1224_108)">
<path d="M28.8789 35.1824C28.8789 37.302 29.1745 39.4105 29.7546 41.4464C29.922 42.0432 30.4686 42.4504 31.0878 42.456L72.3701 42.4449C72.9837 42.4449 73.5248 42.0377 73.6977 41.4408C74.6594 38.043 74.8207 34.4685 74.1691 30.9979C73.5175 27.5272 72.0706 24.2547 69.942 21.4371C67.8134 18.6194 65.0609 16.3333 61.9004 14.758C58.7399 13.1826 55.2575 12.361 51.7262 12.3574C45.6705 12.3604 39.8635 14.7661 35.5799 19.0466C31.2963 23.327 28.8863 29.1323 28.8789 35.188V35.1824Z" fill="#356287"/>
<path d="M34.3889 67.2832C34.359 67.2859 34.3292 67.2897 34.2996 67.2944C20.8735 68.1143 10.3145 79.5045 10.3145 93.4438V99.5237C10.3144 99.8887 10.4581 100.239 10.714 100.498C10.97 100.757 11.3176 100.904 11.681 100.907H91.574C91.7558 100.908 91.9361 100.872 92.1042 100.803C92.2724 100.733 92.4252 100.631 92.5538 100.502C92.6824 100.373 92.7842 100.219 92.8535 100.051C92.9228 99.8817 92.958 99.7008 92.9573 99.5182V93.4382C92.9573 79.5045 82.3927 68.1143 68.9721 67.2944C68.9407 67.2895 68.909 67.2858 68.8773 67.2832H34.3889Z" fill="#1A98C0"/>
<path d="M42.041 56.0938V72.7049L51.7745 77.5688L61.4076 72.0021V56.0938H42.041Z" fill="#FFEBD2"/>
<path d="M28.8789 35.1824C28.8789 37.302 29.1745 39.4105 29.7546 41.4464C29.922 42.0432 30.4686 42.4504 31.0878 42.456H34.0273C33.7283 42.4527 33.4383 42.3525 33.201 42.1704C32.9637 41.9884 32.7917 41.7344 32.711 41.4464C32.1277 39.4095 31.831 37.3012 31.8296 35.1824C31.8417 29.3866 34.0566 23.8121 38.0255 19.5884C41.9944 15.3647 47.4205 12.8077 53.2043 12.4355C52.7135 12.402 52.2282 12.3574 51.7262 12.3574C45.6715 12.3604 39.8653 14.7654 35.5819 19.0446C31.2984 23.3238 28.8878 29.1277 28.8789 35.1824Z" fill="#2C5170"/>
<path d="M29.3633 44.13C29.3633 47.6051 32.0407 50.5335 35.4209 50.5335C35.7891 50.5335 36.1461 50.4945 36.5086 50.422V37.8437C36.1507 37.7699 35.7864 37.7306 35.4209 37.7266C32.0351 37.7266 29.3633 40.6661 29.3633 44.1412V44.13Z" fill="#FFDFBA"/>
<path d="M74.087 44.13C74.087 47.6051 71.4152 50.5335 68.0294 50.5335C67.6668 50.5335 67.3043 50.4945 66.9473 50.422V37.8437C67.3043 37.7768 67.6668 37.7266 68.0294 37.7266C71.4152 37.7266 74.087 40.6661 74.087 44.1412V44.13Z" fill="#FFDFBA"/>
<path d="M42.041 56.0938V62.0064C44.8021 63.8806 48.1321 64.9794 51.7243 64.9794C55.3165 64.9794 58.6466 63.8806 61.4076 62.0064V56.0938H42.041Z" fill="#FFDFBA"/>
<path d="M47.3463 26.235C47.0009 26.2601 46.6775 26.4138 46.44 26.6658C46.2024 26.9178 46.068 27.2497 46.0634 27.596C46.0516 29.5243 45.2781 31.3697 43.9114 32.7301C42.5447 34.0905 40.6957 34.8556 38.7674 34.8585H35.8836C35.5187 34.8599 35.1691 35.0056 34.911 35.2636C34.653 35.5217 34.5073 35.8713 34.5059 36.2362V44.8486C34.5059 54.3422 42.209 62.0286 51.725 62.0286C61.241 62.0286 68.9497 54.3422 68.9497 44.8486V36.2362C68.9482 35.8703 68.8018 35.5199 68.5425 35.2617C68.2833 35.0034 67.9323 34.8585 67.5663 34.8585H57.487C53.1474 34.8585 49.4826 31.679 48.8244 27.4007C48.7707 27.0558 48.5884 26.7439 48.3143 26.5276C48.0401 26.3114 47.6943 26.2069 47.3463 26.235Z" fill="#FFEBD2"/>
<path d="M34.3889 67.2832C34.359 67.2859 34.3292 67.2897 34.2996 67.2944C20.8735 68.1199 10.3145 79.5045 10.3145 93.4438V99.5237C10.3144 99.8887 10.4581 100.239 10.714 100.498C10.97 100.757 11.3176 100.904 11.681 100.907H14.6374C14.4564 100.906 14.2774 100.87 14.1105 100.8C13.9437 100.729 13.7922 100.627 13.6648 100.498C13.5374 100.369 13.4365 100.216 13.3679 100.048C13.2994 99.8798 13.2645 99.6998 13.2652 99.5182V93.4382C13.2652 79.5045 23.8242 68.1143 37.2504 67.2944C37.28 67.2897 37.3097 67.2859 37.3396 67.2832H34.3889Z" fill="#1391B9"/>
<path d="M39.6832 62.0958C39.3264 62.1041 38.9866 62.25 38.7349 62.503L33.5809 67.6514C33.3227 67.9107 33.1777 68.2616 33.1777 68.6275C33.1777 68.9934 33.3227 69.3444 33.5809 69.6037L45.6014 81.613C45.8606 81.8712 46.2116 82.0161 46.5775 82.0161C46.9434 82.0161 47.2944 81.8712 47.5536 81.613L51.7259 77.4463L55.8927 81.613C56.0212 81.7425 56.1742 81.8453 56.3427 81.9155C56.5112 81.9856 56.6919 82.0217 56.8744 82.0217C57.0569 82.0217 57.2376 81.9856 57.4061 81.9155C57.5746 81.8453 57.7275 81.7425 57.8561 81.613L69.8766 69.6037C70.1348 69.3444 70.2797 68.9934 70.2797 68.6275C70.2797 68.2616 70.1348 67.9107 69.8766 67.6514L64.7226 62.503C64.5925 62.3724 64.4377 62.2691 64.2672 62.1992C64.0967 62.1292 63.914 62.0941 63.7297 62.0958C63.369 62.1012 63.0248 62.2473 62.7703 62.503L51.7259 73.525L40.6872 62.5085C40.5558 62.3766 40.3992 62.2725 40.2267 62.2025C40.0542 62.1326 39.8693 62.0926 39.6832 62.0958Z" fill="#84CCE3"/>
<path d="M26.6075 89.1206C26.398 89.112 26.189 89.148 25.9945 89.2263C25.8 89.3046 25.6243 89.4235 25.4792 89.5749C25.3341 89.7263 25.2229 89.9068 25.153 90.1045C25.0831 90.3022 25.056 90.5125 25.0736 90.7215V100.907H28.0131V90.7215C28.0299 90.5237 28.0066 90.3246 27.9447 90.1361C27.8828 89.9475 27.7836 89.7733 27.6529 89.6239C27.5222 89.4745 27.3628 89.3529 27.1842 89.2665C27.0055 89.18 26.8057 89.1304 26.6075 89.1206ZM76.7923 89.1206C76.5823 89.1112 76.3727 89.1466 76.1775 89.2245C75.9823 89.3025 75.806 89.4212 75.6603 89.5727C75.5146 89.7242 75.4029 89.905 75.3326 90.1031C75.2623 90.3012 75.2351 90.5121 75.2528 90.7215V100.907H78.1923V90.7215C78.2091 90.5237 78.1858 90.3246 78.1239 90.1361C78.062 89.9475 77.9628 89.7733 77.8321 89.6239C77.7015 89.4745 77.542 89.3529 77.3634 89.2665C77.1847 89.18 76.9905 89.1304 76.7923 89.1206Z" fill="#3385C8"/>
<path d="M35.8836 34.8535C35.5177 34.855 35.1673 35.0014 34.9091 35.2607C34.6508 35.5199 34.5059 35.8709 34.5059 36.2368V44.8492C34.5095 47.2978 35.0362 49.7173 36.0507 51.9459C37.0651 54.1744 38.5439 56.1606 40.3881 57.7713C42.2323 59.3821 44.3993 60.5803 46.7441 61.2858C49.0888 61.9912 51.5572 62.1877 53.984 61.8619C49.4248 61.2975 45.2288 59.0869 42.1851 55.6457C39.1415 52.2045 37.4599 47.7699 37.4566 43.1758V34.8535H35.8836Z" fill="#FFF3E4"/>
</g>
</svg>
